<?xml version="1.0"?>
<svg xmlns="http://www.w3.org/2000/svg" viewBox="-9 -1 705 82.5">
	<link xmlns="http://www.w3.org/1999/xhtml" rel="stylesheet" href="/static/heap.css" type="text/css" />
	<line class="alloc free" x1="0" y1="0" x2="640" y2="0" stroke="#000" />
	<text class="label" x="475" y="26" style="font-size: 0.4em">(free)</text>
	<text class="number" x="0.5" y="77.5" style="text-anchor: start;">0000h</text>
	<text class="number" x="639.5" y="77.5" style="text-anchor: end;">9FFFh</text>
	<text class="number" x="645" y="77.5" style="text-anchor: start;">(640 KiB)</text>

	<path class="alloc fixed" opacity="0.25" fill="#fcc" d="M0 0h 35v 60H 0z"/>
	<text class="label" opacity="0.25" x="17.5" y="30">BIOS</text>

	<path class="alloc" opacity="0.25" d="M35 0h 60v 60H 35z"/>
	<text class="label" opacity="0.25" x="65" y="26">
		<tspan>DOS,</tspan>
		<tspan font-family="monospace" x="65" dy="12.5">COMMAND.COM</tspan>
	</text>

	<path class="alloc" d="M95 0h 40v 60H 95z"/>
	<text class="label" x="115" y="18">
	<tspan class="binary label">DEBLOAT /</tspan>
	<tspan class="binary label" x="115" dy="12.5">ANNIV</tspan>
		<tspan x="115" dy="12.5">(env.)</tspan>
	</text>
	<path class="alloc game" d="M135 0h 125v 60H 135z" />
	<text class="binary label" x="197.5" y="26">DEBLOAT / ANNIV</text>

	<path class="alloc" d="M260 0h 40v 60H 260z"/>
	<text class="label" x="280" y="26">
		<tspan class="binary label">MDRV98</tspan>
		<tspan x="280" dy="12.5">(env.)</tspan>
	</text>
	<path class="alloc" d="M300 0h 50v 60H 300z"/>
	<text class="binary label" x="325" y="30">MDRV98</text>

	<path class="alloc" opacity="0.25" d="M600 0h 40v 60H 600z"/>
	<text class="label" opacity="0.25" x="620" y="26">
		<tspan>Resident</tspan>
		<tspan x="620" dy="12.5">structure</tspan>
	</text>
	<path class="alloc fixed" opacity="0.25" fill="#fcc" d="M640 0h 60v 60H 640z"/>
	<text class="label" opacity="0.25" x="670" y="30">Text RAM</text>

	<path class="heap" d="M255 45v10" stroke="#000"/>
	<path class="heap" d="M255 50h5" stroke="#000"/>
	<path class="heap" d="M260 45v10" stroke="#f00"/>

	<path d="M0 60h700" stroke="#000"/>
	<path d="M0 55v10" stroke="#000"/>
	<path d="M640 55v10" stroke="#000"/>
</svg>
