<?xml version="1.0"?>
<svg xmlns="http://www.w3.org/2000/svg" viewBox="-9 -1 705 82.5"><link xmlns="http://www.w3.org/1999/xhtml" rel="stylesheet" href="/static/heap.css" type="text/css" /><g opacity="0.25"><path class="alloc fixed" d="M0 0h 25v 60H 0z"/><text class="label" x="12.5" y="30"><tspan>BIOS</tspan></text><path class="alloc" d="M25 0h 45v 60H 25z"/><text class="label" x="47.5" y="23.75"><tspan>DOS,</tspan><tspan x="47.5" dy="12.5"><tspan font-family="monospace">COMMAND.COM</tspan></tspan></text></g><g class="small_env"><path class="alloc" d="M70 0h 30v 60H 70z"/><text class="label" x="85" y="17.5"><tspan><tspan class="binary">DEBLOAT /</tspan></tspan><tspan x="85" dy="12.5"><tspan class="binary">ANNIV</tspan></tspan><tspan x="85" dy="12.5">(env.)</tspan></text></g><path class="alloc" style="fill: #f88" d="M100 0h 495v 60H 100z"/><text class="label" x="347.5" y="30"><tspan><tspan class="binary">DEBLOAT / ANNIV</tspan></tspan></text><g opacity="0.25"><path class="alloc fixed" d="M640 0h 60v 60H 640z"/><text class="label" x="670" y="30"><tspan>Text RAM</tspan></text></g><path class="alloc" style="fill: #800" d="M595 0h 90v 60H 595z" />
	<text class="label" x="640" y="26" style="fill: white">
		<tspan class="binary">🛑 ZUN.COM 🛑</tspan>
	</text>
	<text class="number" x="0.5" y="77.5" style="text-anchor: start;">0000h</text>
	<text class="number" x="639.5" y="77.5" style="text-anchor: end;">9FFFh</text>
	<text class="number" x="645" y="77.5" style="text-anchor: start;">(640 KiB)</text>
	<path d="M0 60h700" stroke="#000"/>
	<path d="M0 55v10" stroke="#000"/>
	<path d="M640 55v10" stroke="#000"/></svg>
